<svg width="361" height="224" viewBox="0 0 361 224" fill="none" xmlns="http://www.w3.org/2000/svg">
<path d="M2.3453 130.26C8.42136 190.159 93.1096 230.541 191.502 220.456C218.403 217.699 242.863 209.48 265.751 202.612C301.84 191.783 319.871 206.28 333.421 204.891C328.231 197.595 317.542 194.392 312.584 187.842C308.946 183.038 312.885 176.942 317.586 173.185C345.758 150.669 361.579 122.572 358.655 93.7402C352.579 33.8415 267.89 -6.54085 169.498 3.54376C71.1062 13.6284 -3.73075 70.3611 2.3453 130.26Z" fill="white"/>
<path d="M191.502 220.456L191.298 218.467L191.502 220.456ZM2.3453 130.26L4.33509 130.058L2.3453 130.26ZM169.498 3.54376L169.294 1.55418L169.498 3.54376ZM358.655 93.7402L356.665 93.9421L358.655 93.7402ZM265.751 202.612L266.326 204.528L266.326 204.528L265.751 202.612ZM333.421 204.891L333.625 206.881C334.333 206.808 334.95 206.364 335.243 205.716C335.537 205.067 335.464 204.312 335.051 203.732L333.421 204.891ZM317.586 173.185L316.338 171.622L316.338 171.622L317.586 173.185ZM312.584 187.842L310.989 189.05L310.989 189.05L312.584 187.842ZM191.502 220.456L191.298 218.467C142.405 223.478 97.0134 215.936 63.1658 199.796C29.2809 183.639 7.27575 159.047 4.33509 130.058L2.3453 130.26L0.355514 130.462C3.49091 161.371 26.8679 186.92 61.4441 203.407C96.0577 219.912 142.206 227.519 191.706 222.446L191.502 220.456ZM2.3453 130.26L4.33509 130.058C1.39433 101.067 18.0099 72.5158 47.9545 49.8153C77.8658 27.14 120.81 10.5445 169.702 5.53333L169.498 3.54376L169.294 1.55418C119.795 6.62761 76.1242 23.4408 45.538 46.6277C14.9851 69.7894 -2.77977 99.5534 0.355514 130.462L2.3453 130.26ZM169.498 3.54376L169.702 5.53333C218.595 0.522153 263.987 8.06375 297.834 24.2035C331.719 40.361 353.724 64.9526 356.665 93.9421L358.655 93.7402L360.644 93.5384C357.509 62.6292 334.132 37.0802 299.556 20.593C264.942 4.08802 218.794 -3.51924 169.294 1.55418L169.498 3.54376ZM265.751 202.612L265.176 200.696C242.201 207.591 217.963 215.734 191.298 218.467L191.502 220.456L191.706 222.446C218.843 219.664 243.524 211.37 266.326 204.528L265.751 202.612ZM265.751 202.612L266.326 204.528C284.003 199.223 297.197 200.127 307.654 202.174C312.965 203.214 317.46 204.519 321.741 205.543C325.923 206.543 329.875 207.265 333.625 206.881L333.421 204.891L333.217 202.901C330.192 203.211 326.81 202.642 322.672 201.653C318.634 200.687 313.825 199.306 308.423 198.249C297.455 196.102 283.588 195.171 265.176 200.696L265.751 202.612ZM358.655 93.7402L356.665 93.9421C359.496 121.851 344.206 149.349 316.338 171.622L317.586 173.185L318.835 174.747C347.309 151.99 363.663 123.292 360.644 93.5384L358.655 93.7402ZM333.421 204.891L335.051 203.732C332.197 199.719 327.887 196.903 323.997 194.404C319.95 191.804 316.396 189.564 314.179 186.635L312.584 187.842L310.989 189.05C313.73 192.67 318 195.306 321.835 197.769C325.825 200.333 329.455 202.766 331.792 206.05L333.421 204.891ZM317.586 173.185L316.338 171.622C313.824 173.631 311.409 176.341 310.121 179.33C308.807 182.381 308.617 185.916 310.989 189.05L312.584 187.842L314.179 186.635C312.913 184.964 312.874 183.049 313.795 180.912C314.742 178.713 316.647 176.496 318.835 174.747L317.586 173.185Z" fill="#181E2A"/>
</svg>
