<svg width="72" height="72" viewBox="0 0 72 72" fill="none" xmlns="http://www.w3.org/2000/svg">
<path d="M55 9C59.4183 9 63 12.5817 63 17V55C63 59.4183 59.4183 63 55 63H17C12.5817 63 9 59.4183 9 55V17C9 12.5817 12.5817 9 17 9H55ZM36.7461 17.5C35.5781 17.5001 34.6309 18.4472 34.6309 19.6152V21.1592C32.9892 21.2803 31.5236 21.636 30.2432 22.2383C28.6668 22.9654 27.4307 24.0062 26.5537 25.3633L26.3945 25.6162C25.6212 26.8912 25.2393 28.3425 25.2393 29.9561C25.2393 31.5418 25.549 32.9073 26.1992 34.0264C26.2019 34.031 26.2051 34.0355 26.208 34.04C26.8951 35.1383 27.999 36.0375 29.4717 36.7568C30.8092 37.4101 32.5331 37.9926 34.6309 38.5146V47.0049C34.2637 46.9078 33.9198 46.7912 33.6006 46.6484C32.7778 46.2453 32.1001 45.6988 31.5605 45.0078L31.3369 44.7021C31.099 44.342 30.8955 43.9489 30.7275 43.5225C30.2241 42.245 29.0357 41.1164 27.5137 41.1982C25.9361 41.2831 24.5753 42.706 25.0674 44.3682C25.3795 45.422 25.833 46.3986 26.4277 47.2949L26.4307 47.2998C27.5021 48.8698 28.9444 50.1017 30.7441 50.9951L30.75 50.998C31.9169 51.5586 33.2121 51.9326 34.6309 52.1289V53.332C34.6309 54.5 35.5781 55.4472 36.7461 55.4473C37.9141 55.4473 38.8613 54.5001 38.8613 53.332V52.21C40.3297 52.0719 41.6732 51.7579 42.8867 51.2588L42.8926 51.2559C44.5784 50.5336 45.9161 49.5124 46.8828 48.1846L46.8857 48.1797C47.8585 46.8137 48.3389 45.2153 48.3389 43.4062C48.3388 41.9147 47.9932 40.5663 47.292 39.375C46.5809 38.167 45.4232 37.1554 43.8662 36.3232C42.5583 35.6011 40.8861 34.9809 38.8613 34.4531V26.6709C38.9453 26.7089 39.0288 26.7464 39.1094 26.7881L39.1191 26.7939C40.0033 27.2258 40.6813 27.8279 41.167 28.6016V28.6025L41.1738 28.6123C41.3395 28.8631 41.4851 29.1245 41.6113 29.3955C42.1694 30.5935 43.331 31.7074 44.8271 31.627C46.4199 31.5413 47.7767 30.07 47.21 28.4092C46.8993 27.4993 46.4823 26.6489 45.96 25.8604C44.9737 24.3716 43.6305 23.2081 41.9434 22.3691H41.9443C41.0183 21.9007 39.9895 21.5653 38.8613 21.3594V19.6152C38.8613 18.4472 37.9141 17.5 36.7461 17.5ZM38.8613 39.6895C39.3304 39.8595 39.7424 40.0291 40.0967 40.2021V40.2031L40.1055 40.207C41.2033 40.7164 41.8652 41.246 42.1865 41.7617L42.1924 41.7695C42.5288 42.286 42.706 42.9078 42.7061 43.6553C42.7061 44.4767 42.4917 45.1233 42.0918 45.6289L42.082 45.6406C41.7027 46.15 41.1172 46.5688 40.2842 46.876C39.8595 47.0186 39.3856 47.1259 38.8613 47.1982V39.6895ZM25.5 44.0283C25.4984 44.0198 25.4956 44.0115 25.4941 44.0029L25.4922 43.9883C25.4944 44.0017 25.4975 44.0149 25.5 44.0283ZM29.6797 42.7168C29.7768 42.8335 29.8672 42.9572 29.9492 43.0869H29.9482C29.8662 42.9572 29.7759 42.8335 29.6787 42.7168H29.6797ZM34.6309 33.3633C34.2833 33.2564 33.9653 33.1511 33.6768 33.0469L33.2754 32.8955C32.2996 32.4978 31.6716 32.0581 31.3232 31.6064C31.0041 31.1563 30.8291 30.5749 30.8291 29.8311C30.8292 28.71 31.2555 27.8321 32.124 27.1533C32.7662 26.6515 33.5948 26.3193 34.6309 26.1768V33.3633ZM32.6885 33.1836C32.6346 33.1587 32.5822 33.1328 32.5303 33.1074C32.5822 33.1327 32.6346 33.1587 32.6885 33.1836ZM32.293 32.9873C32.2315 32.9545 32.1716 32.9212 32.1133 32.8877C32.1717 32.9212 32.2315 32.9545 32.293 32.9873ZM32.0469 32.8496C31.9624 32.7996 31.8814 32.7488 31.8037 32.6973C31.8814 32.7488 31.9624 32.7996 32.0469 32.8496ZM25.792 31.0186C25.7909 31.0075 25.7892 30.9965 25.7881 30.9854L25.7529 30.5156C25.7617 30.6867 25.7751 30.8543 25.792 31.0186ZM31.4414 27.0889C31.4504 27.08 31.4587 27.0703 31.4678 27.0615L31.4785 27.0518C31.4659 27.0639 31.4539 27.0766 31.4414 27.0889ZM44.4736 24.8047C44.5781 24.9125 44.6804 25.0221 44.7793 25.1348C44.6804 25.022 44.578 24.9125 44.4736 24.8047ZM43.8867 24.248C44.0786 24.4147 44.2619 24.5892 44.4385 24.7695C44.2377 24.5644 44.0274 24.3679 43.8066 24.1807C43.8332 24.2033 43.8604 24.2252 43.8867 24.248ZM43.3926 23.8467C43.5049 23.9318 43.6141 24.02 43.7217 24.1094C43.6138 24.02 43.5041 23.932 43.3916 23.8467H43.3926Z" fill="#181E2A"/>
</svg>
