<svg width="37" height="37" viewBox="0 0 37 37" fill="none" xmlns="http://www.w3.org/2000/svg">
<path d="M25.6059 5.03094C27.8777 6.34269 29.7676 8.22504 31.0884 10.4916C32.4092 12.7583 33.1152 15.3305 33.1364 17.9538C33.1576 20.5771 32.4933 23.1604 31.2092 25.4481C29.9252 27.7357 28.066 29.6483 25.8156 30.9966C23.5652 32.3449 21.0017 33.0821 18.3789 33.1351C15.7561 33.1882 13.1648 32.5554 10.8618 31.2993C8.55867 30.0431 6.62357 28.2073 5.24804 25.9735C3.8725 23.7397 3.10422 21.1853 3.01925 18.5633L3.01172 18.0753L3.01925 17.5873C3.10361 14.9859 3.86058 12.4508 5.21636 10.2291C6.57215 8.00738 8.48049 6.17489 10.7553 4.91026C13.0302 3.64564 15.5939 2.99204 18.1965 3.01319C20.7991 3.03434 23.3519 3.72952 25.6059 5.03094ZM23.6582 13.9978C23.3989 13.7385 23.0538 13.5827 22.6877 13.5596C22.3217 13.5366 21.9598 13.648 21.67 13.8728L21.5284 13.9978L16.5682 18.9565L14.6206 17.0104L14.479 16.8853C14.1892 16.6607 13.8273 16.5495 13.4614 16.5726C13.0954 16.5957 12.7504 16.7515 12.4911 17.0108C12.2318 17.2701 12.076 17.615 12.0529 17.981C12.0298 18.347 12.141 18.7088 12.3657 18.9986L12.4907 19.1402L15.5033 22.1528L15.6449 22.2778C15.909 22.4828 16.2339 22.594 16.5682 22.594C16.9025 22.594 17.2274 22.4828 17.4915 22.2778L17.6331 22.1528L23.6582 16.1277L23.7833 15.9861C24.0081 15.6963 24.1194 15.3344 24.0964 14.9683C24.0734 14.6023 23.9176 14.2572 23.6582 13.9978Z" fill="#1DB445"/>
</svg>
