<svg width="84" height="84" viewBox="0 0 84 84" fill="none" xmlns="http://www.w3.org/2000/svg">
<g clip-path="url(#clip0_1014_869)">
<rect width="84" height="84" rx="42" fill="#3F1ED5"/>
<path d="M41.9883 20.25C45.3258 20.25 48.5884 21.2397 51.3635 23.0939C54.1386 24.9482 56.3015 27.5837 57.5787 30.6672C58.856 33.7507 59.1902 37.1437 58.539 40.4171C57.8879 43.6906 56.2807 46.6974 53.9207 49.0574C51.5607 51.4174 48.5539 53.0246 45.2804 53.6758C42.007 54.3269 38.614 53.9927 35.5305 52.7155C32.447 51.4382 29.8115 49.2753 27.9572 46.5002C26.103 43.7252 25.1133 40.4626 25.1133 37.125L25.1302 36.3926C25.3189 32.0482 27.1775 27.9443 30.3183 24.9367C33.4591 21.9292 37.6397 20.2503 41.9883 20.25Z" fill="white"/>
<path d="M48.7383 60.75C53.2138 60.75 57.506 62.5279 60.6707 65.6926C63.8354 68.8572 65.6133 73.1495 65.6133 77.625V81C65.6133 82.7902 64.9021 84.5071 63.6363 85.773C62.3704 87.0388 60.6535 87.75 58.8633 87.75H25.1133C23.3231 87.75 21.6062 87.0388 20.3403 85.773C19.0744 84.5071 18.3633 82.7902 18.3633 81V77.625C18.3633 73.1495 20.1412 68.8572 23.3059 65.6926C26.4705 62.5279 30.7628 60.75 35.2383 60.75H48.7383Z" fill="white"/>
</g>
<defs>
<clipPath id="clip0_1014_869">
<rect width="84" height="84" rx="42" fill="white"/>
</clipPath>
</defs>
</svg>
