<svg width="72" height="72" viewBox="0 0 72 72" fill="none" xmlns="http://www.w3.org/2000/svg">
<g clip-path="url(#clip0_1260_1510)">
<path d="M62.8438 34.6055C63.3021 34.6057 63.7551 34.7057 64.1709 34.8984C64.5868 35.0913 64.9557 35.3729 65.252 35.7227C65.5482 36.0724 65.7649 36.4829 65.8867 36.9248C66.0084 37.3665 66.0331 37.8293 65.958 38.2812L62.8125 54.7383C62.5369 56.1814 61.7667 57.4833 60.6348 58.4199C59.5028 59.3565 58.0796 59.8687 56.6104 59.8691H12.3174L21.0244 36.6553C21.25 36.0536 21.6545 35.5341 22.1826 35.168C22.7106 34.8021 23.3381 34.6057 23.9805 34.6055H62.8438ZM34.4219 21.9736H56.5283C58.2033 21.9737 59.8098 22.6399 60.9941 23.8242C62.1784 25.0087 62.8438 26.6151 62.8438 28.29V30.3955H23.9785C22.5728 30.3961 21.1982 30.7984 20.0166 31.5527L19.7832 31.708C18.5511 32.5623 17.6075 33.7729 17.0811 35.1768L8.375 58.3916C8.36567 58.4165 8.35748 58.4418 8.34863 58.4668C8.17559 58.3271 8.00835 58.1783 7.84961 58.0195C6.66529 56.8351 6.00002 55.2287 6 53.5537V18.8164C6 17.1413 6.66514 15.5341 7.84961 14.3496C9.03409 13.1651 10.6413 12.5 12.3164 12.5H24.9482L34.4219 21.9736Z" fill="#181E2A"/>
</g>
<defs>
<clipPath id="clip0_1260_1510">
<rect width="72" height="72" fill="white"/>
</clipPath>
</defs>
</svg>
