<svg width="72" height="72" viewBox="0 0 72 72" fill="none" xmlns="http://www.w3.org/2000/svg">
<path d="M57 12C59.3869 12 61.6761 12.9482 63.364 14.636C65.0518 16.3239 66 18.6131 66 21V51C66 53.3869 65.0518 55.6761 63.364 57.364C61.6761 59.0518 59.3869 60 57 60H15C12.6131 60 10.3239 59.0518 8.63604 57.364C6.94821 55.6761 6 53.3869 6 51V21C6 18.6131 6.94821 16.3239 8.63604 14.636C10.3239 12.9482 12.6131 12 15 12H57ZM18.03 21L17.649 21.021C16.8897 21.1113 16.1936 21.4881 15.7028 22.0745C15.212 22.6609 14.9637 23.4125 15.0085 24.1758C15.0533 24.9391 15.3879 25.6565 15.9439 26.1815C16.4999 26.7064 17.2354 26.9992 18 27L18.381 26.979C19.1403 26.8887 19.8364 26.5119 20.3272 25.9255C20.818 25.3391 21.0663 24.5875 21.0215 23.8242C20.9767 23.0609 20.6421 22.3435 20.0861 21.8185C19.5301 21.2936 18.7946 21.0008 18.03 21ZM27.03 21L26.649 21.021C25.8897 21.1113 25.1936 21.4881 24.7028 22.0745C24.212 22.6609 23.9637 23.4125 24.0085 24.1758C24.0533 24.9391 24.3879 25.6565 24.9439 26.1815C25.4999 26.7064 26.2354 26.9992 27 27L27.381 26.979C28.1403 26.8887 28.8364 26.5119 29.3272 25.9255C29.818 25.3391 30.0663 24.5875 30.0215 23.8242C29.9767 23.0609 29.6421 22.3435 29.0861 21.8185C28.5301 21.2936 27.7946 21.0008 27.03 21Z" fill="#181E2A"/>
</svg>
