<svg width="720" height="464" viewBox="0 0 720 464" fill="none" xmlns="http://www.w3.org/2000/svg">
<g clip-path="url(#clip0_1076_378)">
<rect x="121" y="26.2363" width="478" height="316" rx="25" fill="#E4E8EF"/>
<path d="M413.38 148.381C413.472 148.289 413.566 148.245 413.63 148.229C413.668 148.22 413.746 148.205 413.907 148.265L688.172 250.024C688.349 250.09 688.395 250.155 688.414 250.183C688.45 250.235 688.493 250.336 688.498 250.475C688.503 250.615 688.467 250.717 688.435 250.772C688.418 250.801 688.377 250.869 688.205 250.948L604.395 289.085L604.145 289.203C598.956 291.763 597.775 298.702 601.905 302.832L670.912 371.838C671.107 372.033 671.107 372.35 670.912 372.545L636.97 406.486C636.775 406.682 636.459 406.682 636.263 406.486L567.472 337.695C563.342 333.565 556.404 334.746 553.844 339.936L553.725 340.186L515.947 423.206C515.869 423.377 515.802 423.419 515.773 423.436C515.718 423.468 515.614 423.503 515.475 423.498C515.336 423.493 515.235 423.45 515.182 423.414C515.155 423.395 515.09 423.35 515.024 423.173L413.265 148.908C413.205 148.746 413.22 148.669 413.229 148.63C413.245 148.566 413.289 148.472 413.38 148.381Z" fill="white" stroke="#788293" stroke-width="11"/>
<path d="M374.32 108.858L315.63 50.1678M437.741 87.424V4.42404M352.668 172.497L269.668 172.497" stroke="#788293" stroke-width="11"/>
</g>
<defs>
<clipPath id="clip0_1076_378">
<rect width="720" height="464" fill="white"/>
</clipPath>
</defs>
</svg>
