<svg width="72" height="72" viewBox="0 0 72 72" fill="none" xmlns="http://www.w3.org/2000/svg">
<path fill-rule="evenodd" clip-rule="evenodd" d="M55.3333 10C57.8971 10 60.3562 11.0155 62.169 12.8238C63.9819 14.632 65 17.0848 65 19.6421V45.3543C65 47.9115 63.9819 50.3643 62.169 52.1725C60.3562 53.9808 57.8971 54.9963 55.3333 54.9963H39.8172C39.4279 54.9963 39.0459 55.1019 38.712 55.3017L26.3645 62.6913C24.9327 63.5482 23.1111 62.5195 23.1111 60.854V57.139C23.1111 55.9556 22.1494 54.9963 20.963 54.9963H16.6667C14.1029 54.9963 11.6438 53.9808 9.83098 52.1725C8.01813 50.3643 7 47.9115 7 45.3543V19.6421C7 17.0848 8.01813 14.632 9.83098 12.8238C11.6438 11.0155 14.1029 10 16.6667 10H55.3333ZM46.3107 36.6308C45.0396 35.3886 42.9997 35.4091 41.7543 36.6768C41.0042 37.4404 40.1085 38.0465 39.1205 38.4606C38.1325 38.8748 37.0717 39.0884 36 39.0884C34.9283 39.0884 33.8675 38.8748 32.8795 38.4606C31.8915 38.0465 30.9958 37.4404 30.2457 36.6768C29.0003 35.4091 26.9604 35.3886 25.6893 36.6308C24.4183 37.8731 24.3978 39.9078 25.6432 41.1756C26.9932 42.5499 28.6048 43.6422 30.3831 44.3875C32.1615 45.1328 34.0711 45.5164 36 45.5164C37.9289 45.5164 39.8385 45.1328 41.6169 44.3875C43.3952 43.6422 45.0068 42.5499 46.3568 41.1756C47.6022 39.9078 47.5816 37.8731 46.3107 36.6308ZM27.9444 22.8561C26.1649 22.8561 24.7222 24.2951 24.7222 26.0701C24.7222 27.8452 26.1649 29.2841 27.9444 29.2841H27.977C29.7564 29.284 31.1992 27.8451 31.1992 26.0701C31.1992 24.2952 29.7564 22.8563 27.977 22.8561H27.9444ZM44.0556 22.8561C42.276 22.8561 40.8333 24.2951 40.8333 26.0701C40.8333 27.8452 42.276 29.2841 44.0556 29.2841H44.0881C45.8675 29.284 47.3103 27.8451 47.3103 26.0701C47.3103 24.2952 45.8675 22.8563 44.0881 22.8561H44.0556Z" fill="#181E2A"/>
</svg>
