<svg width="575" height="518" viewBox="0 0 575 518" fill="none" xmlns="http://www.w3.org/2000/svg">
<g clip-path="url(#clip0_1076_379)">
<rect x="86.5" y="12.5" width="401" height="599" rx="64.5" fill="#E4E8EF" stroke="#788293" stroke-width="11"/>
<rect x="235" y="41" width="104" height="30" rx="15" fill="#788293"/>
<rect x="499" y="198" width="104" height="15" rx="7.5" transform="rotate(90 499 198)" fill="#788293"/>
<rect x="91" y="158" width="78" height="15" rx="7.5" transform="rotate(90 91 158)" fill="#788293"/>
<rect x="91" y="242" width="78" height="15" rx="7.5" transform="rotate(90 91 242)" fill="#788293"/>
<path d="M315.75 217.204C324.423 222.212 331.637 229.397 336.679 238.05C341.721 246.702 344.416 256.522 344.497 266.536C344.578 276.55 342.042 286.411 337.14 295.144C332.239 303.877 325.141 311.178 316.551 316.325C307.96 321.472 298.174 324.286 288.162 324.488C278.15 324.691 268.258 322.275 259.466 317.48C250.675 312.685 243.288 305.677 238.037 297.15C232.786 288.622 229.853 278.871 229.529 268.862L229.5 266.999L229.529 265.136C229.851 255.206 232.74 245.529 237.916 237.048C243.091 228.567 250.376 221.571 259.06 216.744C267.744 211.916 277.531 209.421 287.466 209.502C297.401 209.583 307.146 212.236 315.75 217.204ZM308.315 251.434C307.325 250.444 306.008 249.849 304.61 249.762C303.213 249.674 301.832 250.099 300.725 250.957L300.185 251.434L281.25 270.363L273.815 262.934L273.275 262.457C272.168 261.599 270.787 261.175 269.39 261.263C267.993 261.351 266.676 261.946 265.686 262.936C264.696 263.925 264.102 265.242 264.014 266.639C263.925 268.037 264.35 269.418 265.208 270.524L265.685 271.065L277.185 282.565L277.725 283.042C278.734 283.824 279.974 284.249 281.25 284.249C282.526 284.249 283.766 283.824 284.775 283.042L285.315 282.565L308.315 259.565L308.792 259.024C309.651 257.918 310.076 256.536 309.988 255.139C309.9 253.742 309.305 252.424 308.315 251.434Z" fill="#1DB445"/>
</g>
<defs>
<clipPath id="clip0_1076_379">
<rect width="575" height="518" fill="white"/>
</clipPath>
</defs>
</svg>
