<svg width="72" height="72" viewBox="0 0 72 72" fill="none" xmlns="http://www.w3.org/2000/svg">
<path d="M30 56.9997C30 57.7954 29.6837 58.5582 29.1211 59.1208C28.5585 59.6834 27.7956 59.9997 27 59.9997H24C23.2044 59.9997 22.4415 59.6834 21.8789 59.1208C21.3163 58.5582 21 57.7954 21 56.9997V45.9997H30V56.9997Z" fill="#181E2A"/>
<path d="M50.9551 12.0867C51.4641 12.0211 51.9816 12.1012 52.4463 12.3191C52.9109 12.5369 53.3039 12.883 53.5791 13.3162C53.8543 13.7493 54.0002 14.2522 54 14.7654V51.2331C54.0003 51.7463 53.8542 52.2492 53.5791 52.6824C53.3039 53.1155 52.9109 53.4616 52.4463 53.6794C51.9816 53.8973 51.4641 53.9784 50.9551 53.9128C50.4461 53.8473 49.9666 53.6377 49.5723 53.3093L36 41.9997H12C11.2044 41.9997 10.4415 41.6834 9.87891 41.1208C9.31635 40.5583 9.00006 39.7953 9 38.9997V26.9997C9 26.2041 9.31636 25.4413 9.87891 24.8787C10.4415 24.316 11.2044 23.9997 12 23.9997H36L49.5723 12.6892C49.9665 12.3609 50.4462 12.1522 50.9551 12.0867Z" fill="#181E2A"/>
<path d="M59 24.9402H58V41.0583H59C59.8664 40.6283 60.6674 40.0608 61.3643 39.364C63.0521 37.6762 64 35.3867 64 32.9997C64 30.6128 63.0521 28.3233 61.3643 26.6355C60.6673 25.9386 59.8665 25.3702 59 24.9402Z" fill="#181E2A"/>
</svg>
