<svg width="72" height="72" viewBox="0 0 72 72" fill="none" xmlns="http://www.w3.org/2000/svg">
<g clip-path="url(#clip0_1260_1541)">
<path d="M54.0009 12.5C54.4526 12.5 54.8984 12.602 55.3051 12.7983C55.7119 12.9947 56.069 13.2804 56.3499 13.634L56.5719 13.958L65.5719 28.958C65.8667 29.4499 66.0143 30.0159 65.9973 30.589C65.9802 31.1622 65.7993 31.7185 65.4759 32.192L65.2359 32.501L39.6459 61.1C39.1708 61.5848 38.6036 61.9698 37.9777 62.2325C37.3518 62.4953 36.6797 62.6304 36.0009 62.63C34.8009 62.63 33.6459 62.21 32.6709 61.379L32.2659 61.001L6.76592 32.501C6.38229 32.0729 6.12971 31.5437 6.03824 30.9762C5.94676 30.4087 6.02024 29.8269 6.24992 29.3L6.42992 28.955L15.4689 13.889L15.6609 13.619C15.7983 13.4482 15.9542 13.2932 16.1259 13.157L16.3929 12.965L16.6569 12.815L16.8069 12.746L16.9869 12.671L17.3139 12.575L17.6499 12.515L18.0009 12.5H54.0009ZM27.3429 24.329C26.6609 23.9206 25.8447 23.7996 25.0735 23.9925C24.3023 24.1854 23.6393 24.6765 23.2299 25.358L21.4299 28.358L21.2499 28.706C21.0203 29.2354 20.9483 29.8199 21.0425 30.3892C21.1366 30.9586 21.393 31.4887 21.7809 31.916L27.7809 38.516L28.0509 38.78C28.6063 39.2552 29.316 39.5113 30.0468 39.5003C30.7776 39.4892 31.4792 39.2118 32.0199 38.72L32.2809 38.45C32.7561 37.8947 33.0122 37.185 33.0012 36.4542C32.9902 35.7233 32.7127 35.0217 32.2209 34.481L27.7179 29.531L28.3719 28.442L28.5369 28.133C28.8384 27.4628 28.8833 26.7052 28.6633 26.004C28.4432 25.3028 27.9733 24.7067 27.3429 24.329Z" fill="#181E2A"/>
</g>
<defs>
<clipPath id="clip0_1260_1541">
<rect width="72" height="72" fill="white"/>
</clipPath>
</defs>
</svg>
