<svg width="72" height="72" viewBox="0 0 72 72" fill="none" xmlns="http://www.w3.org/2000/svg">
<path d="M44.6144 42.8613L64.1804 62.4213C63.396 63.4623 62.3947 64.3203 61.2457 64.9357C60.0967 65.5511 58.8276 65.9093 57.5264 65.9853L56.9984 66.0003H14.9984C13.6063 66.0018 12.2329 65.6799 10.9865 65.0598C9.74016 64.4397 8.65492 63.5386 7.81641 62.4273L27.3794 42.8613L34.3334 47.4963L34.6814 47.6943C35.0915 47.8947 35.542 47.9989 35.9984 47.9989C36.4549 47.9989 36.9053 47.8947 37.3154 47.6943L37.6634 47.4963L44.6144 42.8613Z" fill="#181E2A"/>
<path d="M6 28.6055L22.287 39.4655L6 55.7555V28.6055Z" fill="#181E2A"/>
<path d="M66.0009 28.6055V55.7555L49.7109 39.4655L66.0009 28.6055Z" fill="#181E2A"/>
<path d="M37.32 6.30662L37.665 6.50462L62.997 23.3916L36 41.3916L9 23.3916L34.335 6.50162C34.7717 6.21136 35.2768 6.04061 35.8 6.00639C36.3232 5.97218 36.8493 6.07569 37.32 6.30662Z" fill="#181E2A"/>
<path d="M44.6144 42.8613L64.1804 62.4213C63.396 63.4623 62.3947 64.3203 61.2457 64.9357C60.0967 65.5511 58.8276 65.9093 57.5264 65.9853L56.9984 66.0003H14.9984C13.6063 66.0018 12.2329 65.6799 10.9865 65.0598C9.74016 64.4397 8.65492 63.5386 7.81641 62.4273L27.3794 42.8613L34.3334 47.4963L34.6814 47.6943C35.0915 47.8947 35.542 47.9989 35.9984 47.9989C36.4549 47.9989 36.9053 47.8947 37.3154 47.6943L37.6634 47.4963L44.6144 42.8613Z" stroke="#181E2A"/>
<path d="M6 28.6055L22.287 39.4655L6 55.7555V28.6055Z" stroke="#181E2A"/>
<path d="M66.0009 28.6055V55.7555L49.7109 39.4655L66.0009 28.6055Z" stroke="#181E2A"/>
<path d="M37.32 6.30662L37.665 6.50462L62.997 23.3916L36 41.3916L9 23.3916L34.335 6.50162C34.7717 6.21136 35.2768 6.04061 35.8 6.00639C36.3232 5.97218 36.8493 6.07569 37.32 6.30662Z" stroke="#181E2A"/>
</svg>
