<svg width="85" height="85" viewBox="0 0 85 85" fill="none" xmlns="http://www.w3.org/2000/svg">
<rect width="84.3515" height="84.3515" rx="42.1757" fill="#E4E8EF"/>
<path d="M40.5633 65.6992V16.6992H44.8178V65.6992H40.5633ZM43.1269 61.4599C39.9996 61.4599 37.2906 60.9093 34.9996 59.8082C32.7087 58.6704 30.9087 57.1105 29.5996 55.1284C28.3269 53.1097 27.5815 50.7606 27.3633 48.0812L34.3996 47.6958C34.6178 49.3475 35.0906 50.7423 35.8178 51.8801C36.5451 53.0179 37.5269 53.8988 38.7633 54.5228C39.9996 55.1101 41.4906 55.4037 43.236 55.4037C44.7269 55.4037 45.9996 55.2202 47.0542 54.8532C48.1087 54.4494 48.9087 53.8805 49.4542 53.1464C50.036 52.4123 50.3269 51.5131 50.3269 50.4487C50.3269 49.4209 50.0906 48.54 49.6178 47.806C49.1451 47.0352 48.236 46.3378 46.8906 45.7138C45.5815 45.0899 43.636 44.4842 41.0542 43.897C37.9269 43.1262 35.3996 42.282 33.4724 41.3644C31.5815 40.4468 30.2178 39.309 29.3815 37.9509C28.5451 36.5561 28.1269 34.8127 28.1269 32.7206C28.1269 30.4816 28.6724 28.5179 29.7633 26.8296C30.8542 25.1045 32.4178 23.7831 34.4542 22.8655C36.4906 21.9112 38.9451 21.434 41.8178 21.434C44.836 21.434 47.3996 21.9846 49.5087 23.0857C51.6178 24.1502 53.2724 25.6367 54.4724 27.5453C55.7087 29.4539 56.4542 31.6378 56.7087 34.097L49.6724 34.4824C49.5269 33.0876 49.1269 31.858 48.4724 30.7936C47.8178 29.7292 46.9269 28.9033 45.7996 28.3161C44.6724 27.7288 43.3087 27.4352 41.7087 27.4352C39.6724 27.4352 38.0724 27.9123 36.9087 28.8666C35.7815 29.7842 35.2178 30.9955 35.2178 32.5003C35.2178 33.5281 35.4542 34.3906 35.9269 35.088C36.436 35.7487 37.3087 36.3359 38.5451 36.8498C39.7815 37.3269 41.5269 37.8224 43.7815 38.3363C47.1633 39.1071 49.836 40.043 51.7996 41.1442C53.7996 42.2086 55.2178 43.4932 56.0542 44.9981C56.9269 46.4663 57.3633 48.1547 57.3633 50.0633C57.3633 52.3756 56.7633 54.3943 55.5633 56.1194C54.3996 57.8078 52.7451 59.1292 50.5996 60.0835C48.4906 61.0011 45.9996 61.4599 43.1269 61.4599Z" fill="#181E2A"/>
</svg>
