<svg width="72" height="72" viewBox="0 0 72 72" fill="none" xmlns="http://www.w3.org/2000/svg">
<path d="M59.333 12.667C61.1011 12.667 62.7976 13.3689 64.0479 14.6191C65.2981 15.8694 66 17.5659 66 19.334V28.334C66 28.8863 65.5498 29.3263 65.0037 29.4088C63.6044 29.6202 62.2991 30.2732 61.2861 31.2861C60.0359 32.5363 59.3331 34.232 59.333 36C59.333 37.7681 60.0359 39.4636 61.2861 40.7139C62.2991 41.7268 63.6044 42.3805 65.0037 42.5921C65.5498 42.6747 66 43.1147 66 43.667V52.667C66 54.4349 65.2979 56.1307 64.0479 57.3809C62.7976 58.6311 61.1011 59.334 59.333 59.334H49.7275C49.1753 59.334 48.7275 58.8863 48.7275 58.334V52.3633C48.7273 51.3593 47.9132 50.5459 46.9092 50.5459C45.9052 50.5459 45.091 51.3593 45.0908 52.3633V58.334C45.0908 58.8863 44.6431 59.334 44.0908 59.334H12.667C10.8989 59.334 9.20239 58.6311 7.95215 57.3809C6.7021 56.1307 6.00004 54.4349 6 52.667V43.667C6 43.1147 6.45021 42.6747 6.99628 42.5921C8.39563 42.3805 9.7009 41.7268 10.7139 40.7139C11.9641 39.4636 12.667 37.7681 12.667 36C12.6669 34.232 11.9641 32.5363 10.7139 31.2861C9.70091 30.2732 8.39562 29.6202 6.99629 29.4088C6.4502 29.3263 6 28.8863 6 28.334V19.334C6 17.5659 6.70195 15.8694 7.95215 14.6191C9.20239 13.3689 10.8989 12.667 12.667 12.667H44.0908C44.6431 12.667 45.0908 13.1147 45.0908 13.667V19.6367C45.091 20.6407 45.9051 21.4551 46.9092 21.4551C47.9132 21.455 48.7274 20.6407 48.7275 19.6367V13.667C48.7275 13.1147 49.1753 12.667 49.7275 12.667H59.333ZM46.9092 30.5459C45.9052 30.5459 45.091 31.3593 45.0908 32.3633V39.6367C45.091 40.6407 45.9051 41.4551 46.9092 41.4551C47.9132 41.455 48.7274 40.6407 48.7275 39.6367V32.3633C48.7273 31.3593 47.9132 30.5459 46.9092 30.5459Z" fill="black"/>
</svg>
