<svg width="72" height="72" viewBox="0 0 72 72" fill="none" xmlns="http://www.w3.org/2000/svg">
<path d="M36 6C38.9667 6 41.8668 6.87973 44.3336 8.52796C46.8003 10.1762 48.7229 12.5189 49.8582 15.2597C50.9935 18.0006 51.2906 21.0166 50.7118 23.9264C50.133 26.8361 48.7044 29.5088 46.6066 31.6066C44.5088 33.7044 41.8361 35.133 38.9264 35.7118C36.0166 36.2906 33.0006 35.9935 30.2597 34.8582C27.5189 33.7229 25.1762 31.8003 23.528 29.3336C21.8797 26.8668 21 23.9667 21 21L21.015 20.349C21.1828 16.4873 22.8348 12.8393 25.6267 10.166C28.4185 7.49262 32.1346 6.00022 36 6Z" fill="#181E2A"/>
<path d="M42 42C45.9782 42 49.7936 43.5804 52.6066 46.3934C55.4196 49.2064 57 53.0218 57 57V60C57 61.5913 56.3679 63.1174 55.2426 64.2426C54.1174 65.3679 52.5913 66 51 66H21C19.4087 66 17.8826 65.3679 16.7574 64.2426C15.6321 63.1174 15 61.5913 15 60V57C15 53.0218 16.5804 49.2064 19.3934 46.3934C22.2064 43.5804 26.0218 42 30 42H42Z" fill="#181E2A"/>
<path d="M36 6C38.9667 6 41.8668 6.87973 44.3336 8.52796C46.8003 10.1762 48.7229 12.5189 49.8582 15.2597C50.9935 18.0006 51.2906 21.0166 50.7118 23.9264C50.133 26.8361 48.7044 29.5088 46.6066 31.6066C44.5088 33.7044 41.8361 35.133 38.9264 35.7118C36.0166 36.2906 33.0006 35.9935 30.2597 34.8582C27.5189 33.7229 25.1762 31.8003 23.528 29.3336C21.8797 26.8668 21 23.9667 21 21L21.015 20.349C21.1828 16.4873 22.8348 12.8393 25.6267 10.166C28.4185 7.49262 32.1346 6.00022 36 6Z" stroke="#181E2A"/>
<path d="M42 42C45.9782 42 49.7936 43.5804 52.6066 46.3934C55.4196 49.2064 57 53.0218 57 57V60C57 61.5913 56.3679 63.1174 55.2426 64.2426C54.1174 65.3679 52.5913 66 51 66H21C19.4087 66 17.8826 65.3679 16.7574 64.2426C15.6321 63.1174 15 61.5913 15 60V57C15 53.0218 16.5804 49.2064 19.3934 46.3934C22.2064 43.5804 26.0218 42 30 42H42Z" stroke="#181E2A"/>
</svg>
