<svg width="361" height="1018" viewBox="0 0 361 1018" fill="none" xmlns="http://www.w3.org/2000/svg">
<path d="M6.68603 115.983C3.22868 113.983 1.5 110.492 1.5 107C1.5 103.508 3.22866 100.017 6.68601 98.0167L167.457 5.00042C175.524 0.3332 185.476 0.333192 193.543 5.00041L354.314 98.0166C357.771 100.017 359.5 103.508 359.5 107C359.5 110.492 357.771 113.983 354.314 115.983L193.543 209C189.51 211.333 185.005 212.5 180.5 212.5C175.995 212.5 171.49 211.333 167.457 209L6.68603 115.983Z" fill="#FFB366"/>
<path d="M167.457 209L6.68603 115.983C3.22868 113.983 1.5 110.492 1.5 107L1.5 910.972C1.4908 914.473 3.2195 917.978 6.68603 919.983L167.457 1013C171.49 1015.33 175.995 1016.5 180.5 1016.5V805.5V212.5C175.995 212.5 171.49 211.333 167.457 209Z" fill="#FF8000"/>
<path d="M359.5 107C359.5 110.492 357.771 113.983 354.314 115.983L193.543 209C189.51 211.333 185.005 212.5 180.5 212.5V805.5V1016.5C185.005 1016.5 189.51 1015.33 193.543 1013L354.314 919.983C357.781 917.978 359.509 914.473 359.5 910.972V107Z" fill="#994D00"/>
<path d="M1.5 107C1.5 110.492 3.22868 113.983 6.68603 115.983L167.457 209C171.49 211.333 175.995 212.5 180.5 212.5M1.5 107C1.5 103.508 3.22866 100.017 6.68601 98.0167L167.457 5.00042C175.524 0.3332 185.476 0.333192 193.543 5.00041L354.314 98.0166C357.771 100.017 359.5 103.508 359.5 107M1.5 107L1.5 910.972C1.4908 914.473 3.2195 917.978 6.68603 919.983L167.457 1013C171.49 1015.33 175.995 1016.5 180.5 1016.5M359.5 107C359.5 110.492 357.771 113.983 354.314 115.983L193.543 209C189.51 211.333 185.005 212.5 180.5 212.5M359.5 107V910.972C359.509 914.473 357.781 917.978 354.314 919.983L193.543 1013C189.51 1015.33 185.005 1016.5 180.5 1016.5M180.5 212.5V805.5V1016.5" stroke="black" stroke-width="3" stroke-linecap="round"/>
<path d="M163.943 38.6896C161.594 37.3722 160.117 35.9309 159.512 34.3656C158.931 32.7873 159.152 31.2025 160.175 29.6111C161.222 28.0329 163.013 26.5328 165.548 25.111C168.037 23.7154 170.711 22.724 173.572 22.1371C176.456 21.5631 179.317 21.4457 182.155 21.7849C185.016 22.111 187.655 22.9523 190.074 24.3089C192.168 25.4828 193.563 26.6698 194.261 27.8698C194.982 29.0829 195.133 30.2894 194.715 31.4895C194.296 32.6895 193.424 33.8569 192.098 34.9917L187.109 32.4677C188.318 31.5025 188.9 30.5242 188.853 29.5329C188.853 28.5416 187.958 27.5437 186.167 26.5393C184.585 25.6524 182.876 25.1502 181.038 25.0328C179.224 24.9284 177.375 25.1176 175.491 25.6002C173.654 26.0828 171.898 26.7937 170.223 27.7328C168.502 28.6981 167.211 29.6959 166.35 30.7264C165.49 31.7568 165.176 32.7808 165.408 33.7982C165.688 34.8156 166.618 35.7678 168.2 36.6548C169.432 37.3461 170.746 37.7961 172.142 38.0048C173.537 38.2135 174.933 38.2135 176.328 38.0048C177.747 37.7831 179.026 37.3787 180.166 36.7917L174.061 33.3678L177.584 31.3916L188.121 37.3005L175.352 44.4615L172.421 42.818L177.584 39.6092L177.794 40.1179C176.422 40.6005 174.91 40.8614 173.258 40.9005C171.653 40.9397 170.025 40.7701 168.374 40.3918C166.769 40.0136 165.292 39.4462 163.943 38.6896ZM178.756 46.3708L197.386 35.9228L201.573 38.2706L196.584 41.2642L196.27 41.0098C198.34 40.162 200.154 39.7315 201.713 39.7185C203.317 39.7055 204.794 40.0772 206.143 40.8337L207.853 41.7925L204.015 43.9447L202.271 42.9664C201.317 42.4316 200.387 42.0664 199.48 41.8707C198.573 41.6751 197.654 41.6555 196.724 41.812C195.84 41.9685 194.921 42.3142 193.967 42.849L183.222 48.8752L178.756 46.3708ZM196.062 56.5459C194.109 55.4502 192.981 54.3219 192.678 53.161C192.399 51.9871 193.062 50.9501 194.667 50.0501C196.272 49.1501 198.028 48.7261 199.935 48.7783C201.842 48.8305 204.017 49.3196 206.459 50.2457L213.855 53.0241C215.181 52.2806 215.867 51.5566 215.914 50.8523C215.984 50.1349 215.425 49.4435 214.239 48.7783C213.169 48.1783 212.064 47.8457 210.925 47.7805C209.832 47.7152 208.704 47.8783 207.541 48.2696L203.214 45.6087C205.564 44.7087 207.982 44.3695 210.471 44.5913C212.983 44.8 215.39 45.55 217.693 46.8413C220.345 48.3283 221.67 49.8283 221.67 51.3414C221.717 52.8545 220.496 54.3089 218.007 55.7046L211.239 59.5003C210.75 59.7742 210.494 60.009 210.471 60.2047C210.471 60.4134 210.646 60.6155 210.995 60.8112L211.588 61.1438L208.343 62.9634C208.157 62.9112 207.889 62.8004 207.541 62.6308C207.215 62.4743 206.889 62.3047 206.564 62.1221C205.796 61.6917 205.226 61.2416 204.854 60.7721C204.505 60.2894 204.47 59.7873 204.75 59.2655C205.052 58.7307 205.738 58.1633 206.808 57.5633L206.913 57.935C205.912 58.2872 204.773 58.4698 203.494 58.4829C202.261 58.4959 201.005 58.3394 199.726 58.0133C198.446 57.6872 197.225 57.1981 196.062 56.5459ZM200.214 55.235C201.214 55.7959 202.272 56.1676 203.389 56.3502C204.505 56.5328 205.61 56.5394 206.703 56.3698C207.796 56.2002 208.82 55.848 209.773 55.3132L210.82 54.7263L205.029 52.5741C203.819 52.1306 202.784 51.9023 201.924 51.8893C201.11 51.8762 200.377 52.0523 199.726 52.4175C199.005 52.8219 198.679 53.2654 198.749 53.748C198.842 54.2437 199.33 54.7393 200.214 55.235ZM219.935 69.934C218.633 69.2035 217.772 68.4079 217.353 67.547C216.958 66.6991 216.993 65.8448 217.458 64.9839L214.597 66.4709L210.341 64.0839L235.112 50.1922L239.577 52.6966L230.785 57.6272C232.158 57.4315 233.611 57.4381 235.146 57.6468C236.705 57.8424 238.124 58.2989 239.403 59.0164C241.008 59.9164 241.984 60.9207 242.333 62.0295C242.729 63.1382 242.508 64.2795 241.67 65.4535C240.88 66.6274 239.496 67.7687 237.519 68.8775C235.542 69.9862 233.495 70.7688 231.378 71.2253C229.308 71.6819 227.273 71.8058 225.273 71.5971C223.319 71.3884 221.54 70.834 219.935 69.934ZM222.552 67.3318C223.831 68.0492 225.389 68.3231 227.227 68.1535C229.087 67.9709 230.971 67.3448 232.879 66.2752C234.809 65.1926 235.926 64.136 236.228 63.1056C236.554 62.0882 236.077 61.2208 234.798 60.5033C233.844 59.9686 232.774 59.6425 231.588 59.5251C230.448 59.4077 229.239 59.499 227.959 59.799C226.703 60.112 225.424 60.6338 224.122 61.3642C222.866 62.0686 221.947 62.7795 221.366 63.4969C220.831 64.2143 220.656 64.8991 220.842 65.5513C221.028 66.2035 221.598 66.797 222.552 67.3318ZM124.24 55.3987C122.287 54.303 121.159 53.1747 120.856 52.0138C120.577 50.8399 121.24 49.8029 122.845 48.9029C124.45 48.0029 126.206 47.5789 128.113 47.6311C130.02 47.6833 132.195 48.1724 134.637 49.0986L142.033 51.8769C143.359 51.1334 144.045 50.4094 144.092 49.7051C144.162 48.9877 143.603 48.2964 142.417 47.6311C141.347 47.0311 140.242 46.6985 139.103 46.6333C138.01 46.5681 136.882 46.7311 135.719 47.1224L131.393 44.4615C133.742 43.5615 136.161 43.2223 138.649 43.4441C141.161 43.6528 143.568 44.4028 145.871 45.6941C148.523 47.1811 149.848 48.6811 149.848 50.1942C149.895 51.7073 148.674 53.1617 146.185 54.5574L139.417 58.3531C138.928 58.627 138.673 58.8618 138.649 59.0575C138.649 59.2662 138.824 59.4684 139.173 59.664L139.766 59.9966L136.521 61.8162C136.335 61.7641 136.068 61.6532 135.719 61.4836C135.393 61.3271 135.067 61.1575 134.742 60.9749C133.974 60.5445 133.404 60.0945 133.032 59.6249C132.683 59.1423 132.648 58.6401 132.928 58.1183C133.23 57.5835 133.916 57.0161 134.986 56.4161L135.091 56.7879C134.091 57.14 132.951 57.3227 131.672 57.3357C130.439 57.3487 129.183 57.1922 127.904 56.8661C126.624 56.54 125.403 56.0509 124.24 55.3987ZM128.392 54.0878C129.392 54.6487 130.451 55.0204 131.567 55.203C132.683 55.3857 133.788 55.3922 134.881 55.2226C135.974 55.053 136.998 54.7009 137.951 54.1661L138.998 53.5791L133.207 51.4269C131.997 50.9834 130.962 50.7551 130.102 50.7421C129.288 50.729 128.555 50.9051 127.904 51.2703C127.183 51.6747 126.857 52.1182 126.927 52.6008C127.02 53.0965 127.508 53.5921 128.392 54.0878ZM145.235 66.7034C143.375 65.6599 142.433 64.649 142.41 63.6707C142.41 62.7055 143.328 61.7076 145.166 60.6771L162.819 50.7769L167.285 53.2813L150.05 62.9468C149.189 63.4294 148.771 63.8729 148.794 64.2772C148.841 64.6685 149.259 65.0859 150.05 65.5294L152.667 66.9969L149.213 68.9339L145.235 66.7034ZM152.074 53.5161L155.527 51.5791L167.843 58.4858L164.389 60.4228L152.074 53.5161ZM157.237 73.434C155.376 72.3905 154.434 71.3796 154.411 70.4013C154.411 69.436 155.33 68.4382 157.167 67.4077L174.821 57.5075L179.286 60.0119L162.052 69.6774C161.191 70.16 160.772 70.6035 160.796 71.0078C160.842 71.3991 161.261 71.8165 162.052 72.26L164.668 73.7274L161.214 75.6644L157.237 73.434ZM164.075 60.2467L167.529 58.3097L179.845 65.2164L176.391 67.1534L164.075 60.2467ZM171.151 81.7066C169.29 80.6631 168.069 79.5348 167.488 78.3217C166.929 77.0956 167.011 75.863 167.732 74.6238C168.453 73.3846 169.79 72.2172 171.744 71.1215C173.698 70.0259 175.768 69.2824 177.954 68.8911C180.164 68.4867 182.35 68.4345 184.513 68.7345C186.699 69.0476 188.7 69.7128 190.514 70.7302C192.281 71.7216 193.433 72.8107 193.968 73.9977C194.526 75.1977 194.421 76.4173 193.654 77.6565C192.886 78.8956 191.456 80.1022 189.362 81.2761L188.351 81.8435L175.128 74.4281C173.593 75.3934 172.802 76.3325 172.756 77.2456C172.756 78.1587 173.419 78.9869 174.744 79.7304C175.744 80.2913 176.791 80.6305 177.884 80.7478C179.024 80.8652 180.129 80.7674 181.199 80.4544L185.49 83.174C183.164 83.9044 180.722 84.1392 178.163 83.8784C175.628 83.6305 173.291 82.9066 171.151 81.7066ZM178.128 72.7455L186.746 77.5782C188.165 76.6782 188.851 75.8108 188.804 74.976C188.781 74.1281 188.176 73.3716 186.99 72.7064C185.804 72.0411 184.432 71.702 182.873 71.6889C181.338 71.6889 179.757 72.0411 178.128 72.7455ZM183.085 87.9295L201.715 77.4815L205.762 79.7511L200.703 82.7837L200.389 82.3729C201.878 81.7468 203.308 81.375 204.68 81.2576C206.053 81.1402 207.343 81.212 208.553 81.4728C209.762 81.7337 210.867 82.1446 211.867 82.7055C213.24 83.4751 214.088 84.2903 214.414 85.1512C214.763 86.0251 214.647 86.8991 214.065 87.773C213.507 88.6339 212.53 89.4556 211.135 90.2383L199.168 96.9493L194.702 94.4449L205.239 88.5361C206.285 87.9491 207.064 87.3947 207.576 86.873C208.088 86.3512 208.285 85.849 208.169 85.3664C208.099 84.8838 207.669 84.4207 206.878 83.9773C205.692 83.312 204.32 83.012 202.761 83.0772C201.226 83.1555 199.668 83.6381 198.086 84.5251L187.55 90.4339L183.085 87.9295ZM209.511 102.75C207.651 101.707 206.709 100.696 206.686 99.7174C206.686 98.7521 207.604 97.7543 209.442 96.7238L227.095 86.8236L231.561 89.328L214.326 98.9934C213.465 99.4761 213.047 99.9196 213.07 100.324C213.117 100.715 213.535 101.133 214.326 101.576L216.943 103.044L213.489 104.981L209.511 102.75ZM216.35 89.5628L219.804 87.6258L232.119 94.5325L228.665 96.4695L216.35 89.5628ZM216.066 106.426L234.696 95.9779L239.162 98.4823L220.532 108.93L216.066 106.426ZM237.104 94.5496L241.081 92.3191L245.721 94.9213L241.744 97.1518L237.104 94.5496ZM232.072 115.872C230.235 114.842 229.014 113.713 228.409 112.487C227.851 111.261 227.921 110.022 228.618 108.77C229.34 107.531 230.677 106.363 232.631 105.267C234.608 104.159 236.689 103.409 238.876 103.017C241.108 102.626 243.306 102.593 245.469 102.92C247.679 103.246 249.703 103.924 251.54 104.954C253.377 105.985 254.575 107.113 255.133 108.339C255.715 109.552 255.645 110.778 254.924 112.018C254.25 113.257 252.924 114.431 250.947 115.539C248.993 116.635 246.9 117.379 244.667 117.77C242.457 118.174 240.26 118.22 238.073 117.907C235.91 117.581 233.91 116.902 232.072 115.872ZM235.701 113.837C237.143 114.646 238.783 114.965 240.62 114.796C242.481 114.639 244.376 114.02 246.307 112.937C248.214 111.868 249.307 110.811 249.586 109.768C249.912 108.724 249.354 107.798 247.912 106.989C246.47 106.181 244.807 105.861 242.923 106.031C241.062 106.187 239.178 106.8 237.271 107.87C235.34 108.952 234.235 110.015 233.956 111.059C233.677 112.102 234.259 113.028 235.701 113.837ZM244.38 122.305L263.01 111.857L267.057 114.126L261.999 117.159L261.685 116.748C263.173 116.122 264.604 115.75 265.976 115.633C267.348 115.515 268.639 115.587 269.848 115.848C271.058 116.109 272.163 116.52 273.163 117.081C274.535 117.85 275.384 118.665 275.71 119.526C276.058 120.4 275.942 121.274 275.361 122.148C274.803 123.009 273.826 123.831 272.43 124.613L260.463 131.324L255.998 128.82L266.534 122.911C267.581 122.324 268.36 121.77 268.872 121.248C269.383 120.726 269.581 120.224 269.465 119.742C269.395 119.259 268.965 118.796 268.174 118.352C266.988 117.687 265.615 117.387 264.057 117.452C262.522 117.531 260.964 118.013 259.382 118.9L248.846 124.809L244.38 122.305Z" fill="#181D28"/>
</svg>
