<svg width="361" height="1018" viewBox="0 0 361 1018" fill="none" xmlns="http://www.w3.org/2000/svg">
<path d="M6.68603 115.983C3.22868 113.983 1.5 110.492 1.5 107C1.5 103.508 3.22866 100.017 6.68601 98.0167L167.457 5.00042C175.524 0.3332 185.476 0.333192 193.543 5.00041L354.314 98.0166C357.771 100.017 359.5 103.508 359.5 107C359.5 110.492 357.771 113.983 354.314 115.983L193.543 209C189.51 211.333 185.005 212.5 180.5 212.5C175.995 212.5 171.49 211.333 167.457 209L6.68603 115.983Z" fill="#FFE666"/>
<path d="M167.457 209L6.68603 115.983C3.22868 113.983 1.5 110.492 1.5 107L1.5 910.972C1.4908 914.473 3.2195 917.978 6.68603 919.983L167.457 1013C171.49 1015.33 175.995 1016.5 180.5 1016.5V805.5V212.5C175.995 212.5 171.49 211.333 167.457 209Z" fill="#FFD500"/>
<path d="M359.5 107C359.5 110.492 357.771 113.983 354.314 115.983L193.543 209C189.51 211.333 185.005 212.5 180.5 212.5V805.5V1016.5C185.005 1016.5 189.51 1015.33 193.543 1013L354.314 919.983C357.781 917.978 359.509 914.473 359.5 910.972V107Z" fill="#997F00"/>
<path d="M1.5 107C1.5 110.492 3.22868 113.983 6.68603 115.983L167.457 209C171.49 211.333 175.995 212.5 180.5 212.5M1.5 107C1.5 103.508 3.22866 100.017 6.68601 98.0167L167.457 5.00042C175.524 0.3332 185.476 0.333192 193.543 5.00041L354.314 98.0166C357.771 100.017 359.5 103.508 359.5 107M1.5 107L1.5 910.972C1.4908 914.473 3.2195 917.978 6.68603 919.983L167.457 1013C171.49 1015.33 175.995 1016.5 180.5 1016.5M359.5 107C359.5 110.492 357.771 113.983 354.314 115.983L193.543 209C189.51 211.333 185.005 212.5 180.5 212.5M359.5 107V910.972C359.509 914.473 357.781 917.978 354.314 919.983L193.543 1013C189.51 1015.33 185.005 1016.5 180.5 1016.5M180.5 212.5V805.5V1016.5" stroke="black" stroke-width="3" stroke-linecap="round"/>
<path d="M154.488 32.7612L179.259 18.8696L195.936 28.222L191.993 30.4329L179.852 23.6241L173.398 27.2437L185.12 33.8178L181.213 36.0091L169.49 29.4351L162.966 33.0938L175.386 40.0592L171.444 42.2701L154.488 32.7612ZM173.013 43.1498L189.201 41.5846L191.887 32.8387L196.737 35.5583L194.643 41.5063L205.18 40.2932L210.099 43.052L194.504 44.5977L191.713 53.637L186.863 50.9174L189.131 44.6759L177.967 45.9281L173.013 43.1498ZM188.361 57.6272L212.225 44.2443L216.516 46.6509L212.644 48.94L212.399 48.5683C214.237 48.0596 216.028 47.9031 217.772 48.0987C219.563 48.2944 221.168 48.79 222.587 49.5857C224.354 50.577 225.378 51.6466 225.657 52.7945C225.959 53.9554 225.668 55.1097 224.785 56.2576C223.901 57.4055 222.563 58.4816 220.772 59.4859C218.982 60.4903 217.051 61.2338 214.981 61.7164C212.934 62.2121 210.876 62.3751 208.806 62.2056C206.759 62.049 204.852 61.4751 203.084 60.4838C202.154 59.962 201.444 59.3816 200.956 58.7424C200.491 58.1163 200.27 57.4707 200.293 56.8054C200.34 56.1532 200.654 55.5337 201.235 54.9467L202.003 54.9858L192.827 60.1316L188.361 57.6272ZM205.666 57.862C207.015 58.6185 208.608 58.912 210.446 58.7424C212.33 58.5729 214.225 57.9533 216.132 56.8837C218.04 55.8141 219.133 54.7576 219.412 53.7141C219.737 52.6706 219.226 51.7705 217.877 51.014C216.97 50.5053 215.958 50.1988 214.841 50.0944C213.748 49.977 212.562 50.0683 211.283 50.3683C210.027 50.6814 208.724 51.2162 207.375 51.9727C206.026 52.7293 205.073 53.4597 204.515 54.1641C203.956 54.8684 203.77 55.5337 203.956 56.1598C204.189 56.7859 204.759 57.3533 205.666 57.862ZM218.861 68.862C217.512 68.1055 216.779 67.3033 216.663 66.4554C216.547 65.6076 217.256 64.7532 218.791 63.8923L239.166 52.466L243.632 54.9704L223.71 66.1424C223.245 66.4033 223.013 66.6641 223.013 66.925C223.036 67.1989 223.269 67.4598 223.71 67.7076L225.071 68.4707L221.617 70.4077L218.861 68.862ZM228.976 75.0041C227.022 73.9084 225.894 72.7801 225.592 71.6192C225.313 70.4453 225.975 69.4083 227.58 68.5083C229.185 67.6083 230.941 67.1844 232.848 67.2365C234.756 67.2887 236.93 67.7779 239.372 68.704L246.769 71.4823C248.095 70.7388 248.781 70.0149 248.827 69.3105C248.897 68.5931 248.339 67.9018 247.153 67.2365C246.083 66.6365 244.978 66.3039 243.838 66.2387C242.745 66.1735 241.617 66.3365 240.454 66.7278L236.128 64.0669C238.477 63.1669 240.896 62.8277 243.385 63.0495C245.897 63.2582 248.304 64.0082 250.606 65.2995C253.258 66.7865 254.584 68.2866 254.584 69.7996C254.63 71.3127 253.409 72.7671 250.92 74.1628L244.152 77.9585C243.664 78.2324 243.408 78.4672 243.385 78.6629C243.385 78.8716 243.559 79.0738 243.908 79.2694L244.501 79.602L241.256 81.4216C241.07 81.3695 240.803 81.2586 240.454 81.089C240.128 80.9325 239.803 80.7629 239.477 80.5803C238.71 80.1499 238.14 79.6999 237.768 79.2303C237.419 78.7477 237.384 78.2455 237.663 77.7237C237.965 77.1889 238.651 76.6215 239.721 76.0215L239.826 76.3933C238.826 76.7454 237.686 76.9281 236.407 76.9411C235.174 76.9541 233.918 76.7976 232.639 76.4715C231.36 76.1454 230.139 75.6563 228.976 75.0041ZM233.128 73.6932C234.128 74.2541 235.186 74.6258 236.302 74.8084C237.419 74.9911 238.524 74.9976 239.617 74.828C240.71 74.6584 241.733 74.3063 242.687 73.7715L243.734 73.1845L237.942 71.0323C236.733 70.5888 235.698 70.3605 234.837 70.3475C234.023 70.3344 233.29 70.5105 232.639 70.8757C231.918 71.2801 231.592 71.7236 231.662 72.2062C231.755 72.7019 232.244 73.1975 233.128 73.6932ZM243.254 82.5421L261.885 72.094L266.35 74.5984L247.72 85.0465L243.254 82.5421ZM264.292 70.6657L268.269 68.4352L272.909 71.0375L268.932 73.268L264.292 70.6657ZM252.199 87.5581L270.829 77.11L274.876 79.3796L269.817 82.4123L269.503 82.0014C270.992 81.3753 272.422 81.0036 273.794 80.8862C275.167 80.7688 276.457 80.8405 277.667 81.1014C278.876 81.3623 279.981 81.7732 280.981 82.334C282.354 83.1036 283.202 83.9189 283.528 84.7797C283.877 85.6537 283.761 86.5276 283.179 87.4015C282.621 88.2624 281.644 89.0842 280.249 89.8668L268.282 96.5778L263.816 94.0734L274.353 88.1646C275.399 87.5776 276.178 87.0233 276.69 86.5015C277.202 85.9798 277.399 85.4776 277.283 84.995C277.213 84.5124 276.783 84.0493 275.992 83.6058C274.806 82.9406 273.434 82.6406 271.875 82.7058C270.34 82.7841 268.782 83.2667 267.2 84.1536L256.664 90.0625L252.199 87.5581ZM124.345 54.9878L136.172 40.7244L140.882 43.3658L131.497 53.9508L150.372 48.6877L155.082 51.329L129.648 57.9618L124.345 54.9878ZM142.963 65.8984C141.009 64.8027 139.881 63.6745 139.579 62.5136C139.3 61.3396 139.962 60.3026 141.567 59.4026C143.172 58.5026 144.928 58.0787 146.835 58.1309C148.743 58.183 150.917 58.6722 153.36 59.5983L160.756 62.3766C162.082 61.6331 162.768 60.9092 162.814 60.2048C162.884 59.4874 162.326 58.7961 161.14 58.1309C160.07 57.5308 158.965 57.1982 157.825 57.133C156.732 57.0678 155.604 57.2308 154.441 57.6221L150.115 54.9612C152.464 54.0612 154.883 53.7221 157.372 53.9438C159.884 54.1525 162.291 54.9025 164.594 56.1939C167.245 57.6808 168.571 59.1809 168.571 60.694C168.617 62.207 167.396 63.6614 164.907 65.0571L158.139 68.8528C157.651 69.1268 157.395 69.3615 157.372 69.5572C157.372 69.7659 157.546 69.9681 157.895 70.1637L158.488 70.4964L155.243 72.316C155.057 72.2638 154.79 72.1529 154.441 71.9833C154.115 71.8268 153.79 71.6573 153.464 71.4746C152.697 71.0442 152.127 70.5942 151.755 70.1246C151.406 69.642 151.371 69.1398 151.65 68.6181C151.952 68.0833 152.638 67.5159 153.708 66.9158L153.813 67.2876C152.813 67.6398 151.673 67.8224 150.394 67.8354C149.161 67.8485 147.905 67.6919 146.626 67.3659C145.347 67.0398 144.126 66.5506 142.963 65.8984ZM147.115 64.5875C148.115 65.1484 149.173 65.5202 150.289 65.7028C151.406 65.8854 152.511 65.8919 153.604 65.7223C154.697 65.5528 155.72 65.2006 156.674 64.6658L157.721 64.0788L151.929 61.9266C150.72 61.4831 149.685 61.2548 148.824 61.2418C148.01 61.2288 147.277 61.4048 146.626 61.7701C145.905 62.1744 145.579 62.6179 145.649 63.1005C145.742 63.5962 146.231 64.0919 147.115 64.5875ZM161.639 75.9026C160.29 75.1461 159.557 74.3439 159.441 73.496C159.325 72.6482 160.034 71.7938 161.569 70.9329L181.944 59.5066L186.41 62.011L166.488 73.183C166.023 73.4438 165.791 73.7047 165.791 73.9656C165.814 74.2395 166.046 74.5004 166.488 74.7482L167.849 75.5113L164.395 77.4483L161.639 75.9026ZM172.282 82.3409C170.398 81.2844 169.514 80.0974 169.63 78.78C169.793 77.4625 170.979 76.1843 173.189 74.9451L185.191 68.2145L189.656 70.7189L178.771 76.8234C177.213 77.6973 176.317 78.4865 176.085 79.1908C175.899 79.8952 176.341 80.5474 177.411 81.1474C178.62 81.8257 179.946 82.1257 181.388 82.0474C182.876 81.9692 184.388 81.4996 185.923 80.6387L196.634 74.632L201.1 77.1365L182.469 87.5845L178.387 85.2953L183.411 82.3605L183.795 82.7714C181.748 83.6062 179.748 83.9844 177.794 83.9062C175.841 83.8279 174.003 83.3062 172.282 82.3409ZM193.979 94.5091C192.119 93.4656 190.898 92.3373 190.316 91.1242C189.758 89.8981 189.839 88.6655 190.56 87.4263C191.281 86.1872 192.619 85.0197 194.573 83.9241C196.526 82.8284 198.596 82.0849 200.783 81.6936C202.992 81.2892 205.179 81.237 207.342 81.537C209.528 81.8501 211.528 82.5153 213.342 83.5327C215.11 84.5241 216.261 85.6132 216.796 86.8002C217.355 88.0002 217.25 89.2198 216.482 90.459C215.715 91.6982 214.284 92.9047 212.191 94.0786L211.179 94.646L197.957 87.2307C196.422 88.1959 195.631 89.135 195.584 90.0481C195.584 90.9612 196.247 91.7895 197.573 92.533C198.573 93.0938 199.62 93.433 200.713 93.5504C201.853 93.6678 202.957 93.5699 204.027 93.2569L208.318 95.9765C205.993 96.707 203.55 96.9418 200.992 96.6809C198.457 96.433 196.119 95.7091 193.979 94.5091ZM200.957 85.548L209.574 90.3807C210.993 89.4807 211.679 88.6133 211.633 87.7785C211.61 86.9307 211.005 86.1741 209.819 85.5089C208.632 84.8436 207.26 84.5045 205.702 84.4915C204.167 84.4915 202.585 84.8436 200.957 85.548Z" fill="#181D28"/>
</svg>
