<svg width="361" height="1018" viewBox="0 0 361 1018" fill="none" xmlns="http://www.w3.org/2000/svg">
<path d="M6.68603 115.983C3.22868 113.983 1.5 110.492 1.5 107C1.5 103.508 3.22866 100.017 6.68601 98.0167L167.457 5.00042C175.524 0.3332 185.476 0.333192 193.543 5.00041L354.314 98.0166C357.771 100.017 359.5 103.508 359.5 107C359.5 110.492 357.771 113.983 354.314 115.983L193.543 209C189.51 211.333 185.005 212.5 180.5 212.5C175.995 212.5 171.49 211.333 167.457 209L6.68603 115.983Z" fill="#B3FF66"/>
<path d="M167.457 209L6.68603 115.983C3.22868 113.983 1.5 110.492 1.5 107L1.5 910.972C1.4908 914.473 3.2195 917.978 6.68603 919.983L167.457 1013C171.49 1015.33 175.995 1016.5 180.5 1016.5V805.5V212.5C175.995 212.5 171.49 211.333 167.457 209Z" fill="#80FF00"/>
<path d="M359.5 107C359.5 110.492 357.771 113.983 354.314 115.983L193.543 209C189.51 211.333 185.005 212.5 180.5 212.5V805.5V1016.5C185.005 1016.5 189.51 1015.33 193.543 1013L354.314 919.983C357.781 917.978 359.509 914.473 359.5 910.972V107Z" fill="#4D9900"/>
<path d="M1.5 107C1.5 110.492 3.22868 113.983 6.68603 115.983L167.457 209C171.49 211.333 175.995 212.5 180.5 212.5M1.5 107C1.5 103.508 3.22866 100.017 6.68601 98.0167L167.457 5.00042C175.524 0.3332 185.476 0.333192 193.543 5.00041L354.314 98.0166C357.771 100.017 359.5 103.508 359.5 107M1.5 107L1.5 910.972C1.4908 914.473 3.2195 917.978 6.68603 919.983L167.457 1013C171.49 1015.33 175.995 1016.5 180.5 1016.5M359.5 107C359.5 110.492 357.771 113.983 354.314 115.983L193.543 209C189.51 211.333 185.005 212.5 180.5 212.5M359.5 107V910.972C359.509 914.473 357.781 917.978 354.314 919.983L193.543 1013C189.51 1015.33 185.005 1016.5 180.5 1016.5M180.5 212.5V805.5V1016.5" stroke="black" stroke-width="3" stroke-linecap="round"/>
<path d="M154.488 32.7612L179.259 18.8696L187.493 23.4871C191.447 25.7045 193.4 28.0133 193.354 30.4133C193.354 32.8134 191.365 35.1287 187.388 37.3592C183.434 39.5766 179.34 40.6984 175.107 40.7244C170.874 40.7505 166.816 39.6744 162.931 37.4961L154.488 32.7612ZM162.966 33.0938L166.664 35.1678C169.246 36.6157 171.863 37.3005 174.514 37.2222C177.166 37.1439 179.899 36.3156 182.713 34.7374C185.574 33.133 187.074 31.5873 187.214 30.1003C187.353 28.6133 186.132 27.1459 183.55 25.698L179.852 23.6241L162.966 33.0938ZM178.279 46.1033L196.909 35.6553L201.096 38.0031L196.107 40.9967L195.793 40.7423C197.863 39.8945 199.677 39.464 201.236 39.451C202.84 39.438 204.317 39.8097 205.666 40.5662L207.376 41.525L203.538 43.6772L201.794 42.6989C200.84 42.1641 199.91 41.7989 199.003 41.6032C198.096 41.4076 197.177 41.388 196.247 41.5445C195.363 41.701 194.444 42.0467 193.49 42.5815L182.745 48.6077L178.279 46.1033ZM190.937 53.202L209.567 42.7539L214.033 45.2583L195.403 55.7064L190.937 53.202ZM211.975 41.3256L215.952 39.0951L220.592 41.6974L216.615 43.9279L211.975 41.3256ZM204.362 60.7306L216.189 46.4673L220.899 49.1086L211.514 59.6937L230.388 54.4305L235.098 57.0719L209.665 63.7046L204.362 60.7306ZM225.597 73.1091C223.736 72.0656 222.515 70.9374 221.934 69.7243C221.375 68.4982 221.457 67.2655 222.178 66.0264C222.899 64.7872 224.236 63.6198 226.19 62.5241C228.144 61.4284 230.214 60.6849 232.4 60.2936C234.61 59.8893 236.796 59.8371 238.959 60.1371C241.145 60.4502 243.146 61.1154 244.96 62.1328C246.727 63.1241 247.879 64.2133 248.414 65.4003C248.972 66.6003 248.867 67.8199 248.1 69.059C247.332 70.2982 245.902 71.5048 243.808 72.6787L242.797 73.2461L229.574 65.8307C228.039 66.796 227.248 67.7351 227.202 68.6482C227.202 69.5612 227.865 70.3895 229.19 71.133C230.19 71.6939 231.237 72.033 232.33 72.1504C233.47 72.2678 234.575 72.17 235.645 71.8569L239.936 74.5766C237.61 75.307 235.168 75.5418 232.609 75.2809C230.074 75.0331 227.737 74.3092 225.597 73.1091ZM232.574 64.1481L241.192 68.9808C242.611 68.0808 243.297 67.2134 243.25 66.3786C243.227 65.5307 242.622 64.7742 241.436 64.1089C240.25 63.4437 238.878 63.1046 237.319 63.0915C235.784 63.0915 234.203 63.4437 232.574 64.1481ZM252.885 87.9428C251.024 86.8993 250.082 85.8884 250.059 84.9101C250.059 83.9449 250.977 82.947 252.815 81.9166L270.468 72.0164L274.934 74.5208L257.699 84.1862C256.839 84.6688 256.42 85.1123 256.443 85.5167C256.49 85.908 256.908 86.3254 257.699 86.7689L260.316 88.2363L256.862 90.1733L252.885 87.9428ZM259.723 74.7556L263.177 72.8186L275.492 79.7252L272.038 81.6622L259.723 74.7556ZM266.808 96.2208C264.971 95.1903 263.749 94.062 263.145 92.8359C262.586 91.6098 262.656 90.3706 263.354 89.1184C264.075 87.8793 265.412 86.7119 267.366 85.6162C269.343 84.5075 271.425 83.7574 273.611 83.3661C275.844 82.9748 278.042 82.9422 280.205 83.2683C282.415 83.5944 284.438 84.2727 286.276 85.3031C288.113 86.3336 289.311 87.4619 289.869 88.688C290.451 89.9011 290.381 91.1272 289.66 92.3663C288.985 93.6055 287.659 94.7794 285.682 95.8882C283.729 96.9838 281.635 97.7273 279.403 98.1186C277.193 98.523 274.995 98.5687 272.809 98.2556C270.646 97.9295 268.645 97.2512 266.808 96.2208ZM270.436 94.1859C271.878 94.9947 273.518 95.3142 275.356 95.1447C277.216 94.9881 279.112 94.3686 281.042 93.2859C282.95 92.2163 284.043 91.1598 284.322 90.1163C284.647 89.0728 284.089 88.1467 282.647 87.338C281.205 86.5292 279.542 86.2097 277.658 86.3792C275.797 86.5358 273.914 87.1488 272.006 88.2184C270.076 89.3011 268.971 90.3641 268.692 91.4076C268.413 92.4511 268.994 93.3772 270.436 94.1859ZM114.018 55.0661L137.882 41.6832L142.173 44.0897L138.3 46.3789L138.056 46.0072C139.894 45.4985 141.685 45.3419 143.429 45.5376C145.22 45.7333 146.825 46.2289 148.243 47.0246C150.011 48.0159 151.035 49.0855 151.314 50.2334C151.616 51.3943 151.325 52.5486 150.441 53.6965C149.558 54.8443 148.22 55.9204 146.429 56.9248C144.638 57.9292 142.708 58.6727 140.638 59.1553C138.591 59.651 136.533 59.814 134.463 59.6444C132.416 59.4879 130.509 58.914 128.741 57.9227C127.811 57.4009 127.101 56.8205 126.613 56.1813C126.148 55.5552 125.927 54.9096 125.95 54.2443C125.996 53.5921 126.31 52.9726 126.892 52.3856L127.659 52.4247L118.484 57.5705L114.018 55.0661ZM131.323 55.3009C132.672 56.0574 134.265 56.3509 136.102 56.1813C137.986 56.0118 139.882 55.3922 141.789 54.3226C143.696 53.253 144.79 52.1964 145.069 51.1529C145.394 50.1094 144.883 49.2094 143.534 48.4529C142.626 47.9442 141.615 47.6376 140.498 47.5333C139.405 47.4159 138.219 47.5072 136.94 47.8072C135.684 48.1203 134.381 48.6551 133.032 49.4116C131.683 50.1681 130.73 50.8986 130.171 51.603C129.613 52.3073 129.427 52.9726 129.613 53.5987C129.846 54.2248 130.416 54.7922 131.323 55.3009ZM145.603 67.3793C143.719 66.3228 142.836 65.1358 142.952 63.8184C143.115 62.5009 144.301 61.2226 146.511 59.9835L158.512 53.2529L162.978 55.7573L152.093 61.8618C150.534 62.7357 149.639 63.5249 149.406 64.2292C149.22 64.9336 149.662 65.5858 150.732 66.1858C151.941 66.8641 153.267 67.1641 154.709 67.0858C156.198 67.0076 157.71 66.538 159.245 65.6771L169.955 59.6704L174.421 62.1748L155.791 72.6229L151.709 70.3337L156.733 67.3989L157.117 67.8097C155.07 68.6445 153.07 69.0228 151.116 68.9446C149.162 68.8663 147.325 68.3445 145.603 67.3793ZM160.001 74.9841L178.631 64.536L182.818 66.8839L177.829 69.8774L177.515 69.6231C179.585 68.7752 181.399 68.3448 182.957 68.3318C184.562 68.3187 186.039 68.6905 187.388 69.447L189.098 70.4057L185.26 72.5579L183.516 71.5797C182.562 71.0449 181.632 70.6796 180.725 70.484C179.818 70.2883 178.899 70.2688 177.968 70.4253C177.085 70.5818 176.166 70.9275 175.212 71.4623L164.467 77.4885L160.001 74.9841ZM179.857 86.5893C177.997 85.5458 176.776 84.4175 176.194 83.2044C175.636 81.9783 175.706 80.7391 176.403 79.4869C177.124 78.2478 178.462 77.0804 180.416 75.9847C182.369 74.889 184.439 74.1455 186.626 73.7542C188.859 73.3629 191.068 73.3237 193.254 73.6368C195.441 73.9498 197.464 74.6281 199.325 75.6716C200.907 76.5586 202.035 77.5043 202.709 78.5086C203.384 79.513 203.581 80.5239 203.302 81.5413C203.07 82.5587 202.302 83.537 201 84.4762L196.15 82.0305C197.15 81.2609 197.581 80.4978 197.441 79.7413C197.348 78.9847 196.766 78.3065 195.697 77.7065C194.255 76.8977 192.592 76.5782 190.708 76.7477C188.847 76.9043 186.963 77.5173 185.056 78.5869C183.125 79.6695 182.02 80.7326 181.741 81.7761C181.462 82.8196 182.044 83.7457 183.486 84.5544C184.579 85.1675 185.8 85.5001 187.149 85.5523C188.521 85.6175 189.952 85.324 191.44 84.6718L195.836 87.3719C194.162 88.1023 192.394 88.5589 190.533 88.7415C188.672 88.9241 186.823 88.8393 184.986 88.4871C183.172 88.1219 181.462 87.4893 179.857 86.5893ZM191.381 92.5825L216.152 78.6909L220.618 81.1953L210.221 87.0258L209.663 86.7128C210.919 86.2171 212.163 85.9367 213.396 85.8715C214.652 85.7932 215.85 85.891 216.989 86.1649C218.152 86.4258 219.222 86.8302 220.199 87.378C221.571 88.1476 222.42 88.9628 222.746 89.8237C223.118 90.6846 223.002 91.5455 222.397 92.4064C221.815 93.2803 220.827 94.1086 219.431 94.8912L207.465 101.602L202.999 99.0978L213.884 92.9934C215.396 92.1455 216.268 91.3694 216.501 90.665C216.757 89.9476 216.338 89.2824 215.245 88.6693C214.035 87.9911 212.675 87.6715 211.163 87.7106C209.651 87.7498 208.139 88.1932 206.627 89.0411L195.847 95.0869L191.381 92.5825ZM216.217 106.98C214.263 105.885 213.135 104.756 212.833 103.595C212.554 102.421 213.217 101.384 214.822 100.484C216.426 99.5844 218.182 99.1605 220.09 99.2126C221.997 99.2648 224.172 99.754 226.614 100.68L234.01 103.458C235.336 102.715 236.022 101.991 236.068 101.287C236.138 100.569 235.58 99.8779 234.394 99.2126C233.324 98.6126 232.219 98.28 231.079 98.2148C229.986 98.1496 228.858 98.3126 227.695 98.7039L223.369 96.043C225.718 95.143 228.137 94.8038 230.626 95.0256C233.138 95.2343 235.545 95.9843 237.848 97.2756C240.499 98.7626 241.825 100.263 241.825 101.776C241.872 103.289 240.65 104.743 238.162 106.139L231.393 109.935C230.905 110.209 230.649 110.443 230.626 110.639C230.626 110.848 230.8 111.05 231.149 111.246L231.742 111.578L228.498 113.398C228.312 113.346 228.044 113.235 227.695 113.065C227.37 112.909 227.044 112.739 226.718 112.556C225.951 112.126 225.381 111.676 225.009 111.206C224.66 110.724 224.625 110.222 224.904 109.7C225.207 109.165 225.893 108.598 226.963 107.998L227.067 108.369C226.067 108.722 224.928 108.904 223.648 108.917C222.416 108.93 221.16 108.774 219.88 108.448C218.601 108.122 217.38 107.632 216.217 106.98ZM220.369 105.669C221.369 106.23 222.427 106.602 223.544 106.785C224.66 106.967 225.765 106.974 226.858 106.804C227.951 106.635 228.975 106.282 229.928 105.748L230.975 105.161L225.183 103.008C223.974 102.565 222.939 102.337 222.078 102.324C221.264 102.311 220.532 102.487 219.88 102.852C219.159 103.256 218.834 103.7 218.903 104.182C218.997 104.678 219.485 105.174 220.369 105.669ZM237.648 118.999C235.81 117.968 234.531 116.951 233.81 115.946C233.112 114.955 232.903 114.003 233.182 113.09C233.461 112.177 234.159 111.355 235.275 110.625L240.055 113.07C239.241 113.709 238.892 114.362 239.008 115.027C239.125 115.692 239.822 116.383 241.102 117.101C242.148 117.688 243.125 118.053 244.032 118.197C244.986 118.34 245.823 118.21 246.544 117.805C246.963 117.57 247.207 117.316 247.277 117.042C247.347 116.768 247.195 116.41 246.823 115.966C246.451 115.523 245.8 114.923 244.87 114.166C243.288 112.914 242.183 111.851 241.555 110.977C240.95 110.09 240.776 109.314 241.032 108.648C241.311 107.996 241.985 107.37 243.055 106.77C244.8 105.792 246.87 105.374 249.265 105.518C251.708 105.661 254.22 106.457 256.801 107.905C258.476 108.844 259.604 109.79 260.185 110.742C260.79 111.681 260.93 112.594 260.604 113.481C260.325 114.368 259.662 115.196 258.616 115.966L253.906 113.559C254.417 113.142 254.755 112.718 254.917 112.288C255.08 111.857 255.022 111.433 254.743 111.016C254.487 110.585 254.01 110.175 253.312 109.783C252.266 109.196 251.266 108.87 250.312 108.805C249.359 108.74 248.533 108.903 247.835 109.294C247.347 109.568 247.056 109.862 246.963 110.175C246.893 110.501 247.033 110.879 247.382 111.309C247.754 111.727 248.323 112.242 249.091 112.855C250.742 114.12 251.882 115.203 252.51 116.103C253.185 117.003 253.382 117.792 253.103 118.47C252.871 119.149 252.243 119.775 251.219 120.349C250.033 121.014 248.684 121.392 247.172 121.484C245.684 121.588 244.114 121.425 242.462 120.994C240.857 120.564 239.253 119.899 237.648 118.999ZM256.484 129.562C254.623 128.519 253.402 127.39 252.821 126.177C252.262 124.951 252.344 123.719 253.065 122.479C253.786 121.24 255.123 120.073 257.077 118.977C259.031 117.881 261.101 117.138 263.287 116.747C265.497 116.342 267.683 116.29 269.846 116.59C272.032 116.903 274.033 117.568 275.847 118.586C277.614 119.577 278.766 120.666 279.301 121.853C279.859 123.053 279.754 124.273 278.987 125.512C278.219 126.751 276.789 127.958 274.695 129.132L273.684 129.699L260.461 122.284C258.926 123.249 258.135 124.188 258.089 125.101C258.089 126.014 258.752 126.843 260.077 127.586C261.077 128.147 262.124 128.486 263.217 128.603C264.357 128.721 265.462 128.623 266.532 128.31L270.823 131.03C268.497 131.76 266.055 131.995 263.496 131.734C260.961 131.486 258.624 130.762 256.484 129.562ZM263.461 120.601L272.079 125.434C273.498 124.534 274.184 123.666 274.137 122.832C274.114 121.984 273.509 121.227 272.323 120.562C271.137 119.897 269.765 119.558 268.206 119.545C266.671 119.545 265.09 119.897 263.461 120.601Z" fill="#181D28"/>
</svg>
